<svg height="1550" width="720" xmlns="http://www.w3.org/2000/svg">
<rect height="1550" fill="#555" width="720"></rect>
<text fill="#7f7" font-family="Courier New" font-size="12" xml:space="preserve">
<tspan x="10" y="26">16 megabytes installed</tspan>
<tspan x="10" y="42"></tspan>
<tspan x="10" y="58">node_modules</tspan>
<tspan x="10" y="74">└─┬ node-babel@0.1.2 </tspan>
<tspan x="10" y="90">  ├─┬ babel@4.7.16 </tspan>
<tspan x="10" y="106">  │ ├── acorn-babel@0.11.1-38 </tspan>
<tspan x="10" y="122">  │ ├── ast-types@0.7.8 </tspan>
<tspan x="10" y="138">  │ ├─┬ chalk@1.1.3 </tspan>
<tspan x="10" y="154">  │ │ ├── ansi-styles@2.2.1 </tspan>
<tspan x="10" y="170">  │ │ ├── escape-string-regexp@1.0.5 </tspan>
<tspan x="10" y="186">  │ │ ├─┬ has-ansi@2.0.0 </tspan>
<tspan x="10" y="202">  │ │ │ └── ansi-regex@2.1.1 </tspan>
<tspan x="10" y="218">  │ │ ├── strip-ansi@3.0.1 </tspan>
<tspan x="10" y="234">  │ │ └── supports-color@2.0.0 </tspan>
<tspan x="10" y="250">  │ ├─┬ chokidar@0.12.6 </tspan>
<tspan x="10" y="266">  │ │ ├── async-each@0.1.6 </tspan>
<tspan x="10" y="282">  │ │ └─┬ readdirp@1.3.0 </tspan>
<tspan x="10" y="298">  │ │   ├── graceful-fs@2.0.3 </tspan>
<tspan x="10" y="314">  │ │   ├─┬ minimatch@0.2.14 </tspan>
<tspan x="10" y="330">  │ │   │ ├── lru-cache@2.7.3 </tspan>
<tspan x="10" y="346">  │ │   │ └── sigmund@1.0.1 </tspan>
<tspan x="10" y="362">  │ │   └─┬ readable-stream@1.0.34 </tspan>
<tspan x="10" y="378">  │ │     ├── core-util-is@1.0.2 </tspan>
<tspan x="10" y="394">  │ │     ├── inherits@2.0.3 </tspan>
<tspan x="10" y="410">  │ │     ├── isarray@0.0.1 </tspan>
<tspan x="10" y="426">  │ │     └── string_decoder@0.10.31 </tspan>
<tspan x="10" y="442">  │ ├─┬ commander@2.9.0 </tspan>
<tspan x="10" y="458">  │ │ └── graceful-readlink@1.0.1 </tspan>
<tspan x="10" y="474">  │ ├── convert-source-map@0.5.1 </tspan>
<tspan x="10" y="490">  │ ├── core-js@0.6.1 </tspan>
<tspan x="10" y="506">  │ ├─┬ debug@2.6.4 </tspan>
<tspan x="10" y="522">  │ │ └── ms@0.7.3 </tspan>
<tspan x="10" y="538">  │ ├─┬ detect-indent@3.0.1 </tspan>
<tspan x="10" y="554">  │ │ ├── get-stdin@4.0.1 </tspan>
<tspan x="10" y="570">  │ │ └── minimist@1.2.0 </tspan>
<tspan x="10" y="586">  │ ├── estraverse@1.9.3 </tspan>
<tspan x="10" y="602">  │ ├── esutils@1.1.6 </tspan>
<tspan x="10" y="618">  │ ├── fs-readdir-recursive@0.1.2 </tspan>
<tspan x="10" y="634">  │ ├── globals@6.4.1 </tspan>
<tspan x="10" y="650">  │ ├─┬ is-integer@1.0.6 </tspan>
<tspan x="10" y="666">  │ │ └─┬ is-finite@1.0.2 </tspan>
<tspan x="10" y="682">  │ │   └── number-is-nan@1.0.1 </tspan>
<tspan x="10" y="698">  │ ├── js-tokens@1.0.0 </tspan>
<tspan x="10" y="714">  │ ├── leven@1.0.2 </tspan>
<tspan x="10" y="730">  │ ├─┬ line-numbers@0.2.0 </tspan>
<tspan x="10" y="746">  │ │ └── left-pad@0.0.3 </tspan>
<tspan x="10" y="762">  │ ├── lodash@3.10.1 </tspan>
<tspan x="10" y="778">  │ ├─┬ output-file-sync@1.1.2 </tspan>
<tspan x="10" y="794">  │ │ ├── graceful-fs@4.1.11 </tspan>
<tspan x="10" y="810">  │ │ ├─┬ mkdirp@0.5.1 </tspan>
<tspan x="10" y="826">  │ │ │ └── minimist@0.0.8 </tspan>
<tspan x="10" y="842">  │ │ └── object-assign@4.1.1 </tspan>
<tspan x="10" y="858">  │ ├── path-is-absolute@1.0.1 </tspan>
<tspan x="10" y="874">  │ ├── private@0.1.7 </tspan>
<tspan x="10" y="890">  │ ├─┬ regenerator-babel@0.8.13-2 </tspan>
<tspan x="10" y="906">  │ │ ├─┬ commoner@0.10.8 </tspan>
<tspan x="10" y="922">  │ │ │ ├─┬ detective@4.5.0 </tspan>
<tspan x="10" y="938">  │ │ │ │ ├── acorn@4.0.11 </tspan>
<tspan x="10" y="954">  │ │ │ │ └── defined@1.0.0 </tspan>
<tspan x="10" y="970">  │ │ │ ├─┬ glob@5.0.15 </tspan>
<tspan x="10" y="986">  │ │ │ │ ├─┬ inflight@1.0.6 </tspan>
<tspan x="10" y="1002">  │ │ │ │ │ └── wrappy@1.0.2 </tspan>
<tspan x="10" y="1018">  │ │ │ │ ├─┬ minimatch@3.0.3 </tspan>
<tspan x="10" y="1034">  │ │ │ │ │ └─┬ brace-expansion@1.1.7 </tspan>
<tspan x="10" y="1050">  │ │ │ │ │   ├── balanced-match@0.4.2 </tspan>
<tspan x="10" y="1066">  │ │ │ │ │   └── concat-map@0.0.1 </tspan>
<tspan x="10" y="1082">  │ │ │ │ └── once@1.4.0 </tspan>
<tspan x="10" y="1098">  │ │ │ ├── graceful-fs@4.1.11 </tspan>
<tspan x="10" y="1114">  │ │ │ ├── iconv-lite@0.4.15 </tspan>
<tspan x="10" y="1130">  │ │ │ ├── q@1.5.0 </tspan>
<tspan x="10" y="1146">  │ │ │ └─┬ recast@0.11.23 </tspan>
<tspan x="10" y="1162">  │ │ │   ├── ast-types@0.9.6 </tspan>
<tspan x="10" y="1178">  │ │ │   ├── esprima@3.1.3 </tspan>
<tspan x="10" y="1194">  │ │ │   └── source-map@0.5.6 </tspan>
<tspan x="10" y="1210">  │ │ └── through@2.3.8 </tspan>
<tspan x="10" y="1226">  │ ├─┬ regexpu@1.3.0 </tspan>
<tspan x="10" y="1242">  │ │ ├── esprima@2.7.3 </tspan>
<tspan x="10" y="1258">  │ │ ├─┬ recast@0.10.43 </tspan>
<tspan x="10" y="1274">  │ │ │ ├── ast-types@0.8.15 </tspan>
<tspan x="10" y="1290">  │ │ │ ├── esprima-fb@15001.1001.0-dev-harmony-fb </tspan>
<tspan x="10" y="1306">  │ │ │ └── source-map@0.5.6 </tspan>
<tspan x="10" y="1322">  │ │ ├── regenerate@1.3.2 </tspan>
<tspan x="10" y="1338">  │ │ ├── regjsgen@0.2.0 </tspan>
<tspan x="10" y="1354">  │ │ └─┬ regjsparser@0.1.5 </tspan>
<tspan x="10" y="1370">  │ │   └── jsesc@0.5.0 </tspan>
<tspan x="10" y="1386">  │ ├── repeating@1.1.3 </tspan>
<tspan x="10" y="1402">  │ ├── shebang-regex@1.0.0 </tspan>
<tspan x="10" y="1418">  │ ├── slash@1.0.0 </tspan>
<tspan x="10" y="1434">  │ ├─┬ source-map@0.4.4 </tspan>
<tspan x="10" y="1450">  │ │ └── amdefine@1.0.1 </tspan>
<tspan x="10" y="1466">  │ ├─┬ source-map-support@0.2.10 </tspan>
<tspan x="10" y="1482">  │ │ └── source-map@0.1.32 </tspan>
<tspan x="10" y="1498">  │ ├── to-fast-properties@1.0.2 </tspan>
<tspan x="10" y="1514">  │ └── trim-right@1.0.1 </tspan>
<tspan x="10" y="1530">  └── mol-proto@0.1.15</tspan>
</text>
</svg>
